<?xml version="1.0" encoding="iso-8859-1"?>
<!-- Uploaded to: SVG Repo, www.svgrepo.com, Generator: SVG Repo Mixer Tools -->
<!DOCTYPE svg PUBLIC "-//W3C//DTD SVG 1.1//EN" "http://www.w3.org/Graphics/SVG/1.1/DTD/svg11.dtd">
<svg version="1.1" id="Capa_1" xmlns="http://www.w3.org/2000/svg" xmlns:xlink="http://www.w3.org/1999/xlink" 
	 viewBox="0 0 480.33 480.33" xml:space="preserve">
<g>
	<g id="XMLID_21_">
		<g>
			<path d="M480.08,438.834v27.14c0,2.21-1.79,4-4,4H4.25c-2.21,0-4-1.79-4-4v-27.14c0-0.02,0-0.03,0-0.05v-317.29
				c0-2.21,1.79-4,4-4h7.42v-15.59c0-2.21,1.79-4,4-4h16.19v-6.6c0-2.21,1.79-4,4-4h16c2.21,0,4,1.79,4,4v6.6h32v-15.9
				c0-2.21,1.79-4,4-4h16c2.21,0,4,1.79,4,4v15.9h37.57c2.2,0,4,1.79,4,4v15.59h284.68l6.6-15.46c-1.88-2.55-3-5.69-3-9.09
				c0-0.49,0.02-0.97,0.07-1.44l-24.25-23.71l2.58,8.22c1.3,4.13-0.45,8.61-4.18,10.64c-3.46,1.88-8.74,2.82-15.16,2.82
				c-7.79,0-17.24-1.38-27.12-4.1c-18.01-4.95-32.53-13.01-36.99-20.53c-2.16-3.65-1.38-8.39,1.86-11.28l23.82-21.27l4.5-16.29
				c2.37-6.87,15.1-6.74,26.87-3.5c11.77,3.23,22.78,9.64,21.29,16.75l-1.05,3.9l45.65,44.64c7.28,1.21,12.85,7.53,12.85,15.15
				c0,4.03-1.57,7.69-4.12,10.43l-6.02,14.12h13.77c2.21,0,4,1.79,4,4v317.33C480.08,438.824,480.08,438.824,480.08,438.834z
				 M472.08,461.974v-19.14H8.25v19.14H472.08z M472.08,434.834v-309.34H458.9l-15.61,36.6c3.66,1.98,6.52,4.33,8.47,6.93
				c1.95,2.6,2.98,5.44,2.98,8.4v14.84c0,12.37-17.43,21.71-40.55,21.71c-23.11,0-40.54-9.34-40.54-21.71v-14.83
				c0-0.01,0-0.01,0-0.01c0-12.38,17.43-21.71,40.54-21.71c2.54,0,5.04,0.13,7.46,0.36l13.05-30.58H153.43v186.11c0,2.21-1.8,4-4,4
				H15.67c-2.21,0-4-1.79-4-4v-186.11H8.25v309.34H472.08z M464.45,92.944c0-4.07-3.31-7.38-7.37-7.38c-4.07,0-7.37,3.31-7.37,7.38
				c0,4.06,3.3,7.37,7.37,7.37C461.14,100.314,464.45,97.004,464.45,92.944z M431.98,168.204l25.56-59.91
				c-0.15,0-0.31,0.02-0.46,0.02c-2.07,0-4.05-0.42-5.86-1.16l-24.99,58.6c-0.6,1.39-0.02,2.53,0.26,2.95s1.1,1.4,2.61,1.4
				C430.36,170.104,431.49,169.364,431.98,168.204z M449.8,79.404l-38.27-37.43l-0.99,3.59l1.91,6.08L445,83.464
				C446.3,81.804,447.93,80.414,449.8,79.404z M446.74,192.264v-1.58c-7.27,5.2-18.92,8.45-32.55,8.45s-25.27-3.25-32.54-8.45v1.58
				c0,7.84,17.18,13.71,32.54,13.71C429.56,205.974,446.74,200.104,446.74,192.264z M446.74,177.424c0-2.7-2.41-5.55-6.6-7.94
				l-0.8,1.86c-1.75,4.11-5.77,6.76-10.24,6.76c-3.74,0-7.22-1.86-9.28-4.99c-1.83-2.76-2.31-6.14-1.39-9.27
				c-1.39-0.08-2.81-0.13-4.24-0.13c-15.36,0-32.54,5.86-32.54,13.71c0,7.85,17.18,13.71,32.54,13.71
				C429.55,191.134,446.74,185.274,446.74,177.424z M412.11,79.624c0.36-0.2,0.52-0.73,0.37-1.21l-8.31-26.43
				c-1.92,0.56-4.18,0.81-6.65,0.81c-4.4,0-9.43-0.8-14.31-2.14c-7.6-2.1-14.88-5.51-18.69-9.58l-20.68,18.45
				c-0.37,0.34-0.51,0.88-0.3,1.24c2.83,4.77,14.81,12.1,32.23,16.9C393.19,82.454,407.24,82.274,412.11,79.624z M402.64,44.104
				l2.34-8.49c-0.31,0.03-0.62,0.06-0.95,0.08c-0.54,0.02-1.1,0.04-1.67,0.04c-4.27,0-9.32-0.76-14.45-2.16
				c-5.8-1.6-11.11-3.88-14.93-6.43c-0.27-0.18-0.52-0.36-0.78-0.54l-2.33,8.49c0.98,1.59,6.21,5.3,15.47,7.84
				C394.59,45.484,400.99,44.974,402.64,44.104z M390.04,25.854c8.05,2.22,13.95,2.12,16.43,1.49c-1.81-1.82-6.83-4.91-14.88-7.13
				c-8.06-2.22-13.95-2.12-16.44-1.49C376.96,20.544,381.98,23.644,390.04,25.854z M145.43,307.604v-2.37H19.67v2.37H145.43z
				 M145.43,297.234v-2.89H19.67v2.89H145.43z M145.43,286.344v-2.89H19.67v2.89H145.43z M145.43,275.454v-2.89H19.67v2.89H145.43z
				 M145.43,264.564v-158.66H19.67v158.66H145.43z M103.86,97.904v-11.9h-8v11.9H103.86z M47.86,97.904v-2.6h-8v2.6H47.86z"/>
			<rect x="8.25" y="442.834" style="fill:#CE9D61;" width="463.83" height="19.14"/>
			<path style="fill:#EFBF7F;" d="M472.08,125.494v309.34H8.25v-309.34h3.42v186.11c0,2.21,1.79,4,4,4h133.76c2.2,0,4-1.79,4-4
				v-186.11H434.7l-13.05,30.58c-2.42-0.23-4.92-0.36-7.46-0.36c-23.11,0-40.54,9.33-40.54,21.71c0,0,0,0,0,0.01v14.83
				c0,12.37,17.43,21.71,40.54,21.71c23.12,0,40.55-9.34,40.55-21.71v-14.84c0-2.96-1.03-5.8-2.98-8.4
				c-1.95-2.6-4.81-4.95-8.47-6.93l15.61-36.6H472.08z M466.34,347.634v-45.7c0-2.2-1.79-4-4-4s-4,1.8-4,4v30.57
				c-2.94-2.01-6.5-3.2-10.33-3.2c-4.27,0-8.19,1.48-11.31,3.94c-3.19-2.53-7.16-3.94-11.36-3.94c-4.2,0-8.16,1.41-11.36,3.94
				c-3.12-2.46-7.04-3.94-11.31-3.94c-3.83,0-7.39,1.19-10.33,3.2v-30.57c0-2.2-1.79-4-4-4s-4,1.8-4,4v45.7
				c0,10.11,8.22,18.33,18.33,18.33c10.1,0,18.33-8.22,18.33-18.33c0-2.94-0.72-5.71-1.95-8.18c1.78-1.38,3.97-2.15,6.29-2.15
				c2.33,0,4.52,0.77,6.3,2.15c-1.24,2.47-1.95,5.24-1.95,8.18c0,10.11,8.22,18.33,18.32,18.33
				C458.12,365.964,466.34,357.744,466.34,347.634z M387.31,246.994v-32.81c0-2.21-1.79-4-4-4h-34.19v-36.21c0-2.21-1.79-4-4-4
				H207.65c-2.21,0-4,1.79-4,4v36.21h-34.19c-2.21,0-4,1.79-4,4v6.03h-5.6c-2.21,0-4,1.79-4,4v49.99c0,2.2,1.79,4,4,4h13.71v64.73
				c0,0.29,0.03,0.56,0.09,0.82c1.47,16.59,2.21,33.43,2.21,50.07v11.13c0,7.73,6.29,14.02,14.02,14.02h172.98
				c7.73,0,14.02-6.29,14.02-14.02v-11.13c0-16.65,0.75-33.48,2.22-50.07c0.05-0.26,0.08-0.53,0.08-0.82v-83.73
				c0-3-0.83-5.8-2.26-8.21h6.38C385.52,250.994,387.31,249.204,387.31,246.994z M145.92,387.884v-13.58c0-1.03-0.39-2.05-1.17-2.83
				l-49.33-49.34c-0.75-0.75-1.77-1.17-2.83-1.17c-1.06,0-2.08,0.42-2.83,1.17l-38.79,38.8c-0.75,0.75-1.17,1.76-1.17,2.82v13.59
				c0,1.06,0.42,2.07,1.17,2.82l49.33,49.34c0.78,0.78,1.81,1.17,2.83,1.17c1.02,0,2.05-0.39,2.83-1.17l38.79-38.79
				C145.5,389.964,145.92,388.944,145.92,387.884z M75.39,421.184c1.04-1.96,0.3-4.38-1.65-5.41l-54-28.67
				c-1.96-1.04-4.38-0.29-5.41,1.66c-1.04,1.95-0.3,4.37,1.65,5.41l54,28.66c0.6,0.32,1.24,0.47,1.88,0.47
				C73.29,423.304,74.67,422.534,75.39,421.184z"/>
			<path d="M466.34,301.934v45.7c0,10.11-8.22,18.33-18.33,18.33c-10.1,0-18.32-8.22-18.32-18.33c0-2.94,0.71-5.71,1.95-8.18
				c-1.78-1.38-3.97-2.15-6.3-2.15c-2.32,0-4.51,0.77-6.29,2.15c1.23,2.47,1.95,5.24,1.95,8.18c0,10.11-8.23,18.33-18.33,18.33
				c-10.11,0-18.33-8.22-18.33-18.33v-45.7c0-2.2,1.79-4,4-4s4,1.8,4,4v30.57c2.94-2.01,6.5-3.2,10.33-3.2
				c4.27,0,8.19,1.48,11.31,3.94c3.2-2.53,7.16-3.94,11.36-3.94c4.2,0,8.17,1.41,11.36,3.94c3.12-2.46,7.04-3.94,11.31-3.94
				c3.83,0,7.39,1.19,10.33,3.2v-30.57c0-2.2,1.79-4,4-4S466.34,299.734,466.34,301.934z M458.34,347.634
				c0-5.69-4.63-10.33-10.33-10.33c-5.69,0-10.32,4.64-10.32,10.33s4.63,10.33,10.32,10.33
				C453.71,357.964,458.34,353.324,458.34,347.634z M413,347.634c0-5.69-4.64-10.33-10.33-10.33c-5.7,0-10.33,4.64-10.33,10.33
				s4.63,10.33,10.33,10.33C408.36,357.964,413,353.324,413,347.634z"/>
			<path style="fill:#E8653D;" d="M457.08,85.564c4.06,0,7.37,3.31,7.37,7.38c0,4.06-3.31,7.37-7.37,7.37
				c-4.07,0-7.37-3.31-7.37-7.37C449.71,88.874,453.01,85.564,457.08,85.564z"/>
			<path style="fill:#5FB7F9;" d="M457.54,108.294l-25.56,59.91c-0.49,1.16-1.62,1.9-2.88,1.9c-1.51,0-2.33-0.98-2.61-1.4
				s-0.86-1.56-0.26-2.95l24.99-58.6c1.81,0.74,3.79,1.16,5.86,1.16C457.23,108.314,457.39,108.294,457.54,108.294z"/>
			<path style="fill:#D4F3FC;" d="M448.01,337.304c5.7,0,10.33,4.64,10.33,10.33s-4.63,10.33-10.33,10.33
				c-5.69,0-10.32-4.64-10.32-10.33S442.32,337.304,448.01,337.304z"/>
			<path style="fill:#5FB7F9;" d="M411.53,41.974l38.27,37.43c-1.87,1.01-3.5,2.4-4.8,4.06l-32.55-31.82l-1.91-6.08L411.53,41.974z"
				/>
			<path style="fill:#E8653D;" d="M446.74,190.684v1.58c0,7.84-17.18,13.71-32.55,13.71c-15.36,0-32.54-5.87-32.54-13.71v-1.58
				c7.27,5.2,18.91,8.45,32.54,8.45S439.47,195.884,446.74,190.684z"/>
			<path style="fill:#E8653D;" d="M440.14,169.484c4.19,2.39,6.6,5.24,6.6,7.94c0,7.85-17.19,13.71-32.55,13.71
				c-15.36,0-32.54-5.86-32.54-13.71c0-7.85,17.18-13.71,32.54-13.71c1.43,0,2.85,0.05,4.24,0.13c-0.92,3.13-0.44,6.51,1.39,9.27
				c2.06,3.13,5.54,4.99,9.28,4.99c4.47,0,8.49-2.65,10.24-6.76L440.14,169.484z"/>
			<path style="fill:#E8653D;" d="M412.48,78.414c0.15,0.48-0.01,1.01-0.37,1.21c-4.87,2.65-18.92,2.83-36.34-1.96
				c-17.42-4.8-29.4-12.13-32.23-16.9c-0.21-0.36-0.07-0.9,0.3-1.24l20.68-18.45c3.81,4.07,11.09,7.48,18.69,9.58
				c4.88,1.34,9.91,2.14,14.31,2.14c2.47,0,4.73-0.25,6.65-0.81L412.48,78.414z"/>
			<path style="fill:#D4F3FC;" d="M402.67,337.304c5.69,0,10.33,4.64,10.33,10.33s-4.64,10.33-10.33,10.33
				c-5.7,0-10.33-4.64-10.33-10.33S396.97,337.304,402.67,337.304z"/>
			<path style="fill:#5FB7F9;" d="M404.98,35.614l-2.34,8.49c-1.65,0.87-8.05,1.38-17.3-1.17c-9.26-2.54-14.49-6.25-15.47-7.84
				l2.33-8.49c0.26,0.18,0.51,0.36,0.78,0.54c3.82,2.55,9.13,4.83,14.93,6.43c5.13,1.4,10.18,2.16,14.45,2.16
				c0.57,0,1.13-0.02,1.67-0.04C404.36,35.674,404.67,35.644,404.98,35.614z"/>
			<path style="fill:#5FB7F9;" d="M406.47,27.344c-2.48,0.63-8.38,0.73-16.43-1.49c-8.06-2.21-13.08-5.31-14.89-7.13
				c2.49-0.63,8.38-0.73,16.44,1.49C399.64,22.434,404.66,25.524,406.47,27.344z"/>
			<path d="M387.31,214.184v32.81c0,2.21-1.79,4-4,4h-6.38c1.43,2.41,2.26,5.21,2.26,8.21v83.73c0,0.29-0.03,0.56-0.08,0.82
				c-1.47,16.59-2.22,33.42-2.22,50.07v11.13c0,7.73-6.29,14.02-14.02,14.02H189.89c-7.73,0-14.02-6.29-14.02-14.02v-11.13
				c0-16.64-0.74-33.48-2.21-50.07c-0.06-0.26-0.09-0.53-0.09-0.82v-64.73h-13.71c-2.21,0-4-1.8-4-4v-49.99c0-2.21,1.79-4,4-4h5.6
				v-6.03c0-2.21,1.79-4,4-4h34.19v-36.21c0-2.21,1.79-4,4-4h137.47c2.21,0,4,1.79,4,4v36.21h34.19
				C385.52,210.184,387.31,211.974,387.31,214.184z M379.31,242.994v-24.81h-2.76v24.81H379.31z M371.19,338.934v-79.73
				c0-4.53-3.68-8.21-8.21-8.21c-4.14,0-7.57,3.02-8.16,7.19c-5.49,38.78-39.21,68.03-78.43,68.03c-39.23,0-72.95-29.25-78.44-68.03
				c-0.59-4.17-4.02-7.19-8.15-7.19c-4.54,0-8.23,3.68-8.23,8.21v79.73H371.19z M370.81,346.934H181.96
				c1.27,15.56,1.91,31.31,1.91,46.89v11.13c0,3.32,2.71,6.02,6.02,6.02h172.98c3.32,0,6.02-2.7,6.02-6.02v-11.13
				C368.89,378.244,369.54,362.494,370.81,346.934z M368.55,242.994v-24.81h-19.43v10.89h10.78c2.21,0,4,1.79,4,4c0,2.21-1.79,4-4,4
				H192.87c-2.21,0-4-1.79-4-4c0-2.21,1.79-4,4-4h10.78v-10.89h-19.44v24.81H368.55z M346.85,257.394l-0.03,0.02
				c-4.58,4.59-10.44,7.44-16.77,8.23c-1.91,27.48-24.54,49.36-52.33,50.03c-0.44,0.01-0.89,0.02-1.33,0.02
				c-28.41,0-51.73-22.13-53.67-50.05c-6.33-0.79-12.19-3.64-16.78-8.23l-0.01-0.01c5.08,34.69,35.31,60.81,70.46,60.81
				c0.46,0,0.91,0,1.36-0.02C312.32,317.534,341.84,291.634,346.85,257.394z M341.17,251.764l0.77-0.77H210.83l0.77,0.77
				c3.95,3.94,9.19,6.12,14.78,6.12h100.01C331.97,257.884,337.22,255.704,341.17,251.764z M341.12,229.074v-51.1H211.65v51.1
				H341.12z M322.01,265.884h-15.25l14.73,3.94C321.72,268.534,321.89,267.214,322.01,265.884z M319.43,277.554l-14.74-3.95
				l13.2,7.63C318.46,280.034,318.97,278.814,319.43,277.554z M313.88,288.154l-13.19-7.62l10.77,10.77
				C312.31,290.294,313.12,289.234,313.88,288.154z M305.81,296.964l-10.77-10.77l7.61,13.19
				C303.74,298.624,304.79,297.814,305.81,296.964z M295.73,303.394l-7.62-13.2l3.95,14.74
				C293.31,304.474,294.53,303.954,295.73,303.394z M289.5,265.884h-26.23c1.71,5.62,6.94,9.72,13.11,9.72
				C282.55,275.604,287.78,271.504,289.5,265.884z M284.33,306.994l-3.95-14.73v15.25C281.71,307.394,283.03,307.224,284.33,306.994
				z M272.38,307.514v-15.25l-3.95,14.73C269.73,307.224,271.05,307.394,272.38,307.514z M260.7,304.934l3.95-14.74l-7.62,13.2
				C258.23,303.954,259.45,304.474,260.7,304.934z M250.11,299.374l7.61-13.18l-10.76,10.76
				C247.97,297.814,249.03,298.614,250.11,299.374z M241.3,291.304l10.77-10.77l-13.19,7.61
				C239.65,289.234,240.45,290.284,241.3,291.304z M234.87,281.224l13.2-7.62l-14.73,3.95
				C233.79,278.804,234.31,280.024,234.87,281.224z M231.28,269.824l14.71-3.94h-15.23
				C230.87,267.214,231.05,268.524,231.28,269.824z M176.21,242.994v-24.81h-2.75v24.81H176.21z M173.57,270.204v-11v-8.21h-4.11
				c-2.21,0-4-1.79-4-4v-18.78h-1.6v41.99H173.57z"/>
			<rect x="376.55" y="218.185" style="fill:#E8653D;" width="2.76" height="24.81"/>
			<path style="fill:#5FB7F9;" d="M371.19,259.204v79.73H181.57v-79.73c0-4.53,3.69-8.21,8.23-8.21c4.13,0,7.56,3.02,8.15,7.19
				c5.49,38.78,39.21,68.03,78.44,68.03c39.22,0,72.94-29.25,78.43-68.03c0.59-4.17,4.02-7.19,8.16-7.19
				C367.51,250.994,371.19,254.674,371.19,259.204z M206.39,329.904c0-2.2-1.79-4-4-4h-7.68c-2.21,0-4,1.8-4,4c0,2.21,1.79,4,4,4
				h7.68C204.6,333.904,206.39,332.114,206.39,329.904z"/>
			<path style="fill:#4096C1;" d="M181.96,346.934h188.85c-1.27,15.56-1.92,31.31-1.92,46.89v11.13c0,3.32-2.7,6.02-6.02,6.02
				H189.89c-3.31,0-6.02-2.7-6.02-6.02v-11.13C183.87,378.244,183.23,362.494,181.96,346.934z M362.87,393.434v-29.34
				c0-6.95-5.66-12.61-12.61-12.61h-148.8c-6.96,0-12.62,5.66-12.62,12.61v29.34c0,6.96,5.66,12.61,12.62,12.61h148.8
				C357.21,406.044,362.87,400.394,362.87,393.434z"/>
			<path style="fill:#5FB7F9;" d="M368.55,218.184v24.81H184.21v-24.81h19.44v10.89h-10.78c-2.21,0-4,1.79-4,4c0,2.21,1.79,4,4,4
				H359.9c2.21,0,4-1.79,4-4c0-2.21-1.79-4-4-4h-10.78v-10.89H368.55z"/>
			<path d="M362.87,364.094v29.34c0,6.96-5.66,12.61-12.61,12.61h-148.8c-6.96,0-12.62-5.65-12.62-12.61v-29.34
				c0-6.95,5.66-12.61,12.62-12.61h148.8C357.21,351.484,362.87,357.144,362.87,364.094z M354.87,393.434v-2.91H343.1v7.52h7.16
				C352.8,398.044,354.87,395.974,354.87,393.434z M354.87,382.524v-7.52h-4.01v7.52H354.87z M354.87,367.004v-2.91
				c0-2.54-2.07-4.61-4.61-4.61h-7.16v7.52H354.87z M342.86,382.524v-7.52h-7.52v7.52H342.86z M335.1,398.044v-7.52h-13.08v7.52
				H335.1z M335.1,367.004v-7.52h-13.08v7.52H335.1z M327.34,382.524v-7.52h-13.09v7.52H327.34z M314.02,398.044v-7.52h-13.08v7.52
				H314.02z M314.02,367.004v-7.52h-13.08v7.52H314.02z M306.25,382.524v-7.52h-13.07v7.52H306.25z M292.94,398.044v-7.52h-34.16
				v7.52H292.94z M292.94,367.004v-7.52h-13.08v7.52H292.94z M285.18,382.524v-7.52H272.1v7.52H285.18z M271.86,367.004v-7.52
				h-13.08v7.52H271.86z M264.1,382.524v-7.52h-13.08v7.52H264.1z M250.78,398.044v-7.52H237.7v7.52H250.78z M250.78,367.004v-7.52
				H237.7v7.52H250.78z M243.02,382.524v-7.52h-13.08v7.52H243.02z M229.7,398.044v-7.52h-13.08v7.52H229.7z M229.7,367.004v-7.52
				h-13.08v7.52H229.7z M221.94,382.524v-7.52h-13.08v7.52H221.94z M208.62,398.044v-7.52h-11.78v2.91c0,2.54,2.07,4.61,4.62,4.61
				H208.62z M208.62,367.004v-7.52h-7.16c-2.55,0-4.62,2.07-4.62,4.61v2.91H208.62z M200.86,382.524v-7.52h-4.02v7.52H200.86z"/>
			<path style="fill:#E8653D;" d="M354.87,390.524v2.91c0,2.54-2.07,4.61-4.61,4.61h-7.16v-7.52H354.87z"/>
			<rect x="350.86" y="375.005" style="fill:#E8653D;" width="4.01" height="7.52"/>
			<path style="fill:#E8653D;" d="M354.87,364.094v2.91H343.1v-7.52h7.16C352.8,359.484,354.87,361.554,354.87,364.094z"/>
			<path style="fill:#E8653D;" d="M346.82,257.414l0.03-0.02c-5.01,34.24-34.53,60.14-69.1,60.8l-0.03-2.52
				c27.79-0.67,50.42-22.55,52.33-50.03C336.38,264.854,342.24,262.004,346.82,257.414z"/>
			<rect x="335.34" y="375.005" style="fill:#E8653D;" width="7.52" height="7.52"/>
			<path style="fill:#3285A5;" d="M341.94,250.994l-0.77,0.77c-3.95,3.94-9.2,6.12-14.78,6.12H226.38c-5.59,0-10.83-2.18-14.78-6.12
				l-0.77-0.77H341.94z"/>
			<path style="fill:#E6E6E6;" d="M341.12,177.974v51.1H211.65v-51.1H341.12z M331.63,189.414c0-2.21-1.79-4-4-4h-87.1
				c-2.21,0-4,1.79-4,4c0,2.21,1.79,4,4,4h87.1C329.84,193.414,331.63,191.624,331.63,189.414z M331.63,203.694c0-2.21-1.79-4-4-4
				H225.14c-2.21,0-4,1.79-4,4c0,2.21,1.79,4,4,4h102.49C329.84,207.694,331.63,205.904,331.63,203.694z M331.63,217.974
				c0-2.21-1.79-4-4-4H225.14c-2.21,0-4,1.79-4,4c0,2.21,1.79,4,4,4h102.49C329.84,221.974,331.63,220.184,331.63,217.974z"/>
			<rect x="322.02" y="390.525" style="fill:#E8653D;" width="13.08" height="7.52"/>
			<rect x="322.02" y="359.485" style="fill:#E8653D;" width="13.08" height="7.52"/>
			<path d="M327.63,185.414c2.21,0,4,1.79,4,4c0,2.21-1.79,4-4,4h-87.1c-2.21,0-4-1.79-4-4c0-2.21,1.79-4,4-4H327.63z"/>
			<path d="M327.63,199.694c2.21,0,4,1.79,4,4c0,2.21-1.79,4-4,4H225.14c-2.21,0-4-1.79-4-4c0-2.21,1.79-4,4-4H327.63z"/>
			<path d="M327.63,213.974c2.21,0,4,1.79,4,4c0,2.21-1.79,4-4,4H225.14c-2.21,0-4-1.79-4-4c0-2.21,1.79-4,4-4H327.63z"/>
			<rect x="314.25" y="375.005" style="fill:#E8653D;" width="13.09" height="7.52"/>
			<path style="fill:#5FB7F9;" d="M306.76,265.884h15.25c-0.12,1.33-0.29,2.65-0.52,3.94L306.76,265.884z"/>
			<path style="fill:#5FB7F9;" d="M304.69,273.604l14.74,3.95c-0.46,1.26-0.97,2.48-1.54,3.68L304.69,273.604z"/>
			<rect x="300.94" y="390.525" style="fill:#E8653D;" width="13.08" height="7.52"/>
			<rect x="300.94" y="359.485" style="fill:#E8653D;" width="13.08" height="7.52"/>
			<path style="fill:#5FB7F9;" d="M300.69,280.534l13.19,7.62c-0.76,1.08-1.57,2.14-2.42,3.15L300.69,280.534z"/>
			<rect x="293.18" y="375.005" style="fill:#E8653D;" width="13.07" height="7.52"/>
			<path style="fill:#5FB7F9;" d="M295.04,286.194l10.77,10.77c-1.02,0.85-2.07,1.66-3.16,2.42L295.04,286.194z"/>
			<path style="fill:#5FB7F9;" d="M288.11,290.194l7.62,13.2c-1.2,0.56-2.42,1.08-3.67,1.54L288.11,290.194z"/>
			<rect x="258.78" y="390.525" style="fill:#E8653D;" width="34.16" height="7.52"/>
			<rect x="279.86" y="359.485" style="fill:#E8653D;" width="13.08" height="7.52"/>
			<path style="fill:#E8653D;" d="M263.27,265.884h26.23c-1.72,5.62-6.95,9.72-13.12,9.72
				C270.21,275.604,264.98,271.504,263.27,265.884z"/>
			<rect x="272.1" y="375.005" style="fill:#E8653D;" width="13.08" height="7.52"/>
			<path style="fill:#5FB7F9;" d="M280.38,292.264l3.95,14.73c-1.3,0.23-2.62,0.4-3.95,0.52V292.264z"/>
			<path style="fill:#E8653D;" d="M277.72,315.674l0.03,2.52c-0.45,0.02-0.9,0.02-1.36,0.02c-35.15,0-65.38-26.12-70.46-60.81
				l0.01,0.01c4.59,4.59,10.45,7.44,16.78,8.23c1.94,27.92,25.26,50.05,53.67,50.05C276.83,315.694,277.28,315.684,277.72,315.674z"
				/>
			<path style="fill:#5FB7F9;" d="M272.38,292.264v15.25c-1.33-0.12-2.65-0.29-3.95-0.52L272.38,292.264z"/>
			<rect x="258.78" y="359.485" style="fill:#E8653D;" width="13.08" height="7.52"/>
			<path style="fill:#5FB7F9;" d="M264.65,290.194l-3.95,14.74c-1.25-0.46-2.47-0.98-3.67-1.54L264.65,290.194z"/>
			<rect x="251.02" y="375.005" style="fill:#E8653D;" width="13.08" height="7.52"/>
			<path style="fill:#5FB7F9;" d="M257.72,286.194l-7.61,13.18c-1.08-0.76-2.14-1.56-3.15-2.42L257.72,286.194z"/>
			<path style="fill:#5FB7F9;" d="M252.07,280.534l-10.77,10.77c-0.85-1.02-1.65-2.07-2.42-3.16L252.07,280.534z"/>
			<rect x="237.7" y="390.525" style="fill:#E8653D;" width="13.08" height="7.52"/>
			<rect x="237.7" y="359.485" style="fill:#E8653D;" width="13.08" height="7.52"/>
			<path style="fill:#5FB7F9;" d="M248.07,273.604l-13.2,7.62c-0.56-1.2-1.08-2.42-1.53-3.67L248.07,273.604z"/>
			<path style="fill:#5FB7F9;" d="M245.99,265.884l-14.71,3.94c-0.23-1.3-0.41-2.61-0.52-3.94H245.99z"/>
			<rect x="229.94" y="375.005" style="fill:#E8653D;" width="13.08" height="7.52"/>
			<rect x="216.62" y="390.525" style="fill:#E8653D;" width="13.08" height="7.52"/>
			<rect x="216.62" y="359.485" style="fill:#E8653D;" width="13.08" height="7.52"/>
			<rect x="208.86" y="375.005" style="fill:#E8653D;" width="13.08" height="7.52"/>
			<path style="fill:#E8653D;" d="M208.62,390.524v7.52h-7.16c-2.55,0-4.62-2.07-4.62-4.61v-2.91H208.62z"/>
			<path style="fill:#E8653D;" d="M208.62,359.484v7.52h-11.78v-2.91c0-2.54,2.07-4.61,4.62-4.61H208.62z"/>
			<path d="M202.39,325.904c2.21,0,4,1.8,4,4c0,2.21-1.79,4-4,4h-7.68c-2.21,0-4-1.79-4-4c0-2.2,1.79-4,4-4H202.39z"/>
			<rect x="196.84" y="375.005" style="fill:#E8653D;" width="4.02" height="7.52"/>
			<rect x="173.46" y="218.185" style="fill:#E8653D;" width="2.75" height="24.81"/>
			<path style="fill:#5FB7F9;" d="M173.57,259.204v11h-9.71v-41.99h1.6v18.78c0,2.21,1.79,4,4,4h4.11V259.204z"/>
			<path d="M145.92,374.304v13.58c0,1.06-0.42,2.08-1.17,2.83l-38.79,38.79c-0.78,0.78-1.81,1.17-2.83,1.17
				c-1.02,0-2.05-0.39-2.83-1.17l-49.33-49.34c-0.75-0.75-1.17-1.76-1.17-2.82v-13.59c0-1.06,0.42-2.07,1.17-2.82l38.79-38.8
				c0.75-0.75,1.77-1.17,2.83-1.17c1.06,0,2.08,0.42,2.83,1.17l49.33,49.34C145.53,372.254,145.92,373.274,145.92,374.304z
				 M137.92,386.224v-2.27l-30.79,30.79v2.27L137.92,386.224z M103.13,407.434l33.14-33.13l-43.68-43.68l-33.14,33.13
				L103.13,407.434z M99.13,417.014v-2.27l-41.33-41.33v2.27L99.13,417.014z"/>
			<rect x="19.67" y="305.235" style="fill:#B3B3B3;" width="125.76" height="2.37"/>
			<rect x="19.67" y="294.344" style="fill:#B3B3B3;" width="125.76" height="2.89"/>
			<rect x="19.67" y="283.455" style="fill:#B3B3B3;" width="125.76" height="2.89"/>
			<rect x="19.67" y="272.564" style="fill:#B3B3B3;" width="125.76" height="2.89"/>
			<path style="fill:#E6E6E6;" d="M145.43,105.904v158.66H19.67v-158.66H145.43z M137.79,117.904c0-2.21-1.79-4-4-4H47.86
				c-2.21,0-4,1.79-4,4s1.79,4,4,4h85.93C136,121.904,137.79,120.114,137.79,117.904z M137.79,132.384c0-2.21-1.79-4-4-4H31.3
				c-2.21,0-4,1.79-4,4c0,2.21,1.79,4,4,4h102.49C136,136.384,137.79,134.594,137.79,132.384z M137.79,146.874c0-2.21-1.79-4-4-4
				H31.3c-2.21,0-4,1.79-4,4c0,2.21,1.79,4,4,4h102.49C136,150.874,137.79,149.084,137.79,146.874z M137.79,190.334
				c0-2.21-1.79-4-4-4H47.86c-2.21,0-4,1.79-4,4c0,2.21,1.79,4,4,4h85.93C136,194.334,137.79,192.544,137.79,190.334z
				 M137.79,204.814c0-2.2-1.79-4-4-4H31.3c-2.21,0-4,1.8-4,4c0,2.21,1.79,4,4,4h102.49C136,208.814,137.79,207.024,137.79,204.814z
				 M137.79,219.304c0-2.21-1.79-4-4-4H31.3c-2.21,0-4,1.79-4,4c0,2.21,1.79,4,4,4h102.49
				C136,223.304,137.79,221.514,137.79,219.304z M119.19,233.794c0-2.21-1.79-4-4-4H31.3c-2.21,0-4,1.79-4,4s1.79,4,4,4h83.89
				C117.4,237.794,119.19,236.004,119.19,233.794z M98.53,161.364c0-2.21-1.79-4-4-4H31.3c-2.21,0-4,1.79-4,4c0,2.21,1.79,4,4,4
				h63.23C96.74,165.364,98.53,163.574,98.53,161.364z"/>
			<polygon style="fill:#FCF6CA;" points="137.92,383.954 137.92,386.224 107.13,417.014 107.13,414.744 			"/>
			<path d="M133.79,113.904c2.21,0,4,1.79,4,4s-1.79,4-4,4H47.86c-2.21,0-4-1.79-4-4s1.79-4,4-4H133.79z"/>
			<path d="M133.79,128.384c2.21,0,4,1.79,4,4c0,2.21-1.79,4-4,4H31.3c-2.21,0-4-1.79-4-4c0-2.21,1.79-4,4-4H133.79z"/>
			<path d="M133.79,142.874c2.21,0,4,1.79,4,4c0,2.21-1.79,4-4,4H31.3c-2.21,0-4-1.79-4-4c0-2.21,1.79-4,4-4H133.79z"/>
			<path d="M133.79,186.334c2.21,0,4,1.79,4,4c0,2.21-1.79,4-4,4H47.86c-2.21,0-4-1.79-4-4c0-2.21,1.79-4,4-4H133.79z"/>
			<path d="M133.79,200.814c2.21,0,4,1.8,4,4c0,2.21-1.79,4-4,4H31.3c-2.21,0-4-1.79-4-4c0-2.2,1.79-4,4-4H133.79z"/>
			<path d="M133.79,215.304c2.21,0,4,1.79,4,4c0,2.21-1.79,4-4,4H31.3c-2.21,0-4-1.79-4-4c0-2.21,1.79-4,4-4H133.79z"/>
			<path style="fill:#E8653D;" d="M136.27,374.304l-33.14,33.13l-43.68-43.68l33.14-33.13L136.27,374.304z M97.69,349.134
				c1.56-1.56,1.56-4.1,0-5.66c-1.56-1.56-4.1-1.56-5.66,0l-18.33,18.34c-1.56,1.56-1.56,4.09,0,5.65c0.78,0.78,1.8,1.17,2.83,1.17
				c1.02,0,2.04-0.39,2.83-1.17L97.69,349.134z"/>
			<path d="M115.19,229.794c2.21,0,4,1.79,4,4s-1.79,4-4,4H31.3c-2.21,0-4-1.79-4-4s1.79-4,4-4H115.19z"/>
			<rect x="95.86" y="86.004" style="fill:#E8653D;" width="8" height="11.9"/>
			<polygon style="fill:#FCF6CA;" points="99.13,414.744 99.13,417.014 57.8,375.684 57.8,373.414 			"/>
			<path d="M97.69,343.474c1.56,1.56,1.56,4.1,0,5.66l-18.33,18.33c-0.79,0.78-1.81,1.17-2.83,1.17c-1.03,0-2.05-0.39-2.83-1.17
				c-1.56-1.56-1.56-4.09,0-5.65l18.33-18.34C93.59,341.914,96.13,341.914,97.69,343.474z"/>
			<path d="M94.53,157.364c2.21,0,4,1.79,4,4c0,2.21-1.79,4-4,4H31.3c-2.21,0-4-1.79-4-4c0-2.21,1.79-4,4-4H94.53z"/>
			<path d="M73.74,415.774c1.95,1.03,2.69,3.45,1.65,5.41c-0.72,1.35-2.1,2.12-3.53,2.12c-0.64,0-1.28-0.15-1.88-0.47l-54-28.66
				c-1.95-1.04-2.69-3.46-1.65-5.41c1.03-1.95,3.45-2.7,5.41-1.66L73.74,415.774z"/>
			<rect x="39.86" y="95.304" style="fill:#5FB7F9;" width="8" height="2.6"/>
		</g>
		<g>
		</g>
	</g>
</g>
</svg>