<?xml version="1.0" encoding="iso-8859-1"?>
<!-- Uploaded to: SVG Repo, www.svgrepo.com, Generator: SVG Repo Mixer Tools -->
<svg version="1.1" id="Layer_1" xmlns="http://www.w3.org/2000/svg" xmlns:xlink="http://www.w3.org/1999/xlink" 
	 viewBox="0 0 511.999 511.999" xml:space="preserve">
<rect x="10.5" y="284.533" style="fill:#1990E0;" width="203.023" height="136.463"/>
<rect x="10.5" y="284.533" style="fill:#FFEFC6;" width="203.023" height="110.648"/>
<path style="fill:#0F8EE3;" d="M213.851,306.824v20.351c0,6.799-4.088,12.932-10.365,15.548l-67.237,28.014
	c-14.205,5.919-23.457,22.006-23.457,37.395v81.087h286.335v-81.087c0-15.388-9.253-31.477-23.457-37.395l-67.237-28.014
	c-6.277-2.615-10.365-8.749-10.365-15.548v-20.351H213.851z"/>
<g>
	<path style="fill:#FEBBA0;" d="M298.067,312.661v52.043c0,23.08-18.978,41.964-42.058,41.964l0,0
		c-23.08,0-42.159-18.884-42.159-41.964v-52.043H298.067z"/>
	<path style="fill:#FEBBA0;" d="M349.985,186.876v-30.441c0-51.828-42.015-93.842-93.842-93.842
		c-51.828,0-93.842,42.015-93.842,93.842h-0.368v30.441c-12.924,0-23.402,10.478-23.402,23.402
		c0,12.924,10.478,23.402,23.402,23.402v17.471c1.126,14.734,8.311,27.852,19.191,35.036l56.571,32.341
		c11.359,7.502,25.172,7.502,36.531,0l56.402-32.341c10.879-7.185,18.232-20.302,19.359-35.036V233.68
		c12.924,0,23.402-10.478,23.402-23.402C373.387,197.353,362.909,186.876,349.985,186.876z"/>
</g>
<path style="fill:#5D9EBA;" d="M459.681,423.267h-8.419v-29.975H385.31v29.975h-8.425c-9.251,0-16.75,7.499-16.75,16.75v32.452
	c0,9.251,7.499,16.75,16.75,16.75h82.796c9.251,0,16.75-7.499,16.75-16.75v-32.452C476.431,430.767,468.932,423.267,459.681,423.267
	z"/>
<path style="fill:#FF5957;" d="M494.847,194.359c20.67,57.531-8.265,123.123-64.69,146.647
	C409.487,283.475,438.42,217.885,494.847,194.359z"/>
<path style="fill:#703E41;" d="M252.682,106.178c0,0-42.483,43.48-76.275,49.034s-55.095-7.316-64.859-22.849
	c35.061,2.219,58.289-19.294,64.132-38.822c-17.236-8.433-45.713,5.094-45.713,5.094S132.63,50.7,210.966,50.7
	c-8.865-13.314-35.507-14.202-35.507-14.202S234.93-5.665,279.312,57.801c7.101-29.292,51.624-30.283,71.969-14.697
	c-30.694,0.495-24.452,35.113-24.452,35.113s49.679-17.753,73.645,28.848c-24.188-8.875-44.19-1.667-52.593,10.705
	c3.988,22.761,8.655,32.308,40.166,42.591c-43.496,13.483-83.439-9.264-85.658-42.591c-6.798,20.737-30.068,44.772-64.16,44.772
	C257.253,141.683,252.682,106.178,252.682,106.178z"/>
<path d="M75.241,303.631H41.448c-5.769,0-10.447,4.677-10.447,10.447c0,5.77,4.678,10.447,10.447,10.447h33.793
	c5.769,0,10.447-4.677,10.447-10.447C85.688,308.308,81.01,303.631,75.241,303.631z"/>
<path d="M75.241,329.489H41.448c-5.769,0-10.447,4.677-10.447,10.447c0,5.77,4.678,10.447,10.447,10.447h33.793
	c5.769,0,10.447-4.677,10.447-10.447C85.688,334.166,81.01,329.489,75.241,329.489z"/>
<path d="M75.241,355.347H41.448c-5.769,0-10.447,4.677-10.447,10.447c0,5.77,4.678,10.447,10.447,10.447h33.793
	c5.769,0,10.447-4.677,10.447-10.447C85.688,360.025,81.01,355.347,75.241,355.347z"/>
<path d="M156.239,324.526h-11.402c-5.769,0-10.447-4.677-10.447-10.447c0-5.77,4.678-10.447,10.447-10.447h11.402
	c5.769,0,10.447,4.677,10.447,10.447C166.686,319.848,162.008,324.526,156.239,324.526z"/>
<path d="M145.617,350.384h-0.78c-5.769,0-10.447-4.677-10.447-10.447c0-5.77,4.678-10.447,10.447-10.447h0.78
	c5.769,0,10.447,4.677,10.447,10.447C156.064,345.707,151.386,350.384,145.617,350.384z"/>
<path d="M10.584,499.676h-0.137C4.678,499.676,0,494.999,0,489.229c0-5.77,4.678-10.447,10.447-10.447h0.137
	c5.769,0,10.447,4.677,10.447,10.447C21.031,494.999,16.353,499.676,10.584,499.676z"/>
<path d="M501.471,499.668h-0.137c-5.769,0-10.447-4.677-10.447-10.447c0-5.77,4.678-10.447,10.447-10.447h0.137
	c5.769,0,10.447,4.677,10.447,10.447C511.918,494.99,507.24,499.668,501.471,499.668z"/>
<path d="M256.003,280.156c-11.39,0-20.656-9.267-20.656-20.656c0-5.77,4.678-10.447,10.447-10.447h20.418
	c5.769,0,10.447,4.677,10.447,10.447C276.659,270.89,267.393,280.156,256.003,280.156z"/>
<path d="M284,454.744h-0.137c-5.769,0-10.447-4.677-10.447-10.447c0-5.77,4.678-10.447,10.447-10.447H284
	c5.769,0,10.447,4.677,10.447,10.447C294.447,450.067,289.769,454.744,284,454.744z"/>
<path d="M206.182,211.508c0,6.439,5.238,11.677,11.677,11.677s11.678-5.238,11.678-11.677c0-6.44-5.239-11.678-11.678-11.678
	S206.182,205.068,206.182,211.508z"/>
<path d="M282.383,211.508c0,6.439,5.239,11.677,11.678,11.677c6.439,0,11.677-5.238,11.677-11.677
	c0-6.44-5.238-11.678-11.677-11.678C287.622,199.83,282.383,205.068,282.383,211.508z"/>
<path d="M500.971,284.652c13.298-30.146,14.615-63.466,3.708-93.825c-0.967-2.693-2.997-4.872-5.615-6.026
	c-2.619-1.155-5.597-1.186-8.237-0.085c-29.776,12.413-53.498,35.852-66.796,65.998c-12.802,29.021-14.494,60.984-4.871,90.415
	c-3.458,13.022-6.294,26.988-8.075,41.715h-8.075c-5.408-9.95-13.679-17.731-23.325-21.75l-67.237-28.014
	c-2.39-0.996-3.936-3.313-3.936-5.904v-14.516v-1.753l27.309-15.658c0.19-0.109,0.377-0.225,0.56-0.346
	c13.673-9.031,22.652-25.089,24.017-42.958c0.021-0.264,0.03-9.469,0.03-9.469c13.567-4.413,23.401-17.18,23.401-32.2
	c0-15.02-9.834-27.787-23.401-32.2v-3.404c0.746,0.019,1.492,0.039,2.242,0.039c9.381,0,19.01-1.44,28.466-4.371
	c4.345-1.348,7.32-5.352,7.354-9.902c0.033-4.55-2.881-8.598-7.206-10.01c-25.136-8.202-29.14-13.933-32.248-29.733
	c6.921-6.577,20.602-10.146,37.835-3.824c4.04,1.482,8.577,0.335,11.427-2.891c2.851-3.225,3.431-7.868,1.462-11.696
	c-14.553-28.298-37.487-36.027-54.164-37.527c-6.815-0.612-13.127-0.232-18.333,0.474c0.507-2.762,1.454-5.491,3.125-7.524
	c0.821-0.999,3.318-4.036,11.056-4.16c4.446-0.071,8.359-2.949,9.753-7.171s-0.038-8.864-3.568-11.568
	c-15.605-11.955-41.173-15.597-60.791-8.666c-7.941,2.806-14.478,7.175-19.316,12.794c-13.048-14.029-28.115-22.592-44.951-25.515
	c-33.858-5.877-61.98,13.714-63.159,14.552c-3.652,2.589-5.238,7.217-3.96,11.507c0.761,2.55,2.44,4.645,4.618,5.959
	c-15.479,4.523-27.809,11.991-36.855,22.356c-12.458,14.276-13.594,28.663-13.683,30.256c-0.205,3.681,1.545,7.197,4.606,9.252
	c3.061,2.054,6.978,2.346,10.306,0.764c5.434-2.58,16.395-6.337,25.799-6.8c-8.875,12.237-26.121,22.043-48.039,20.666
	c-3.904-0.256-7.636,1.716-9.641,5.087c-2.004,3.37-1.952,7.58,0.135,10.9c10.23,16.275,27.615,26.182,48.784,28.49v11.665
	c-13.567,4.413-23.401,17.18-23.401,32.2c0,15.02,9.834,27.787,23.401,32.2c0,0,0.01,9.205,0.03,9.469
	c1.372,17.942,10.287,34.001,23.849,42.958c0.187,0.123,0.377,0.24,0.573,0.352l27.465,15.701v16.219
	c0,2.59-1.545,4.907-3.936,5.904l-67.237,28.016c-3.186,1.328-6.195,3.054-8.991,5.104v-71.217h15.293
	c5.769,0,10.447-4.677,10.447-10.447c0-5.77-4.678-10.447-10.447-10.447H10.499c-5.769,0-10.447,4.677-10.447,10.447v136.461
	c0,5.77,4.678,10.447,10.447,10.447h91.847v47.333H44.383c-5.77,0-10.447,4.678-10.447,10.447s4.678,10.447,10.447,10.447h415.299
	c14.996,0,27.197-12.2,27.197-27.198v-32.452c0-14.315-11.116-26.082-25.17-27.122v-19.603c0-5.77-4.678-10.447-10.447-10.447
	h-19.109c1.573-11.987,3.91-23.457,6.724-34.278C466.444,335.715,488.382,313.193,500.971,284.652z M135.91,140.677
	c25.994-6.346,44.034-24.948,49.777-44.141c1.465-4.897-0.826-10.134-5.418-12.379c-9.701-4.746-21.32-4.416-31.384-2.51
	c8.737-9.997,26.406-20.498,62.078-20.498c3.852,0,7.391-2.12,9.209-5.515c1.818-3.395,1.621-7.516-0.514-10.722
	c-2.991-4.493-7.167-7.916-11.77-10.525c1.581-0.306,3.206-0.564,4.871-0.757c22.632-2.637,42.15,7.511,57.988,30.161
	c2.354,3.365,6.462,5.04,10.496,4.279c4.035-0.761,7.25-3.814,8.219-7.805c1.644-6.787,6.469-11.637,14.339-14.417
	c6.275-2.217,13.729-2.796,20.896-1.935c-0.153,0.178-0.302,0.354-0.446,0.53c-11.263,13.7-8.103,33.427-7.705,35.631
	c0.544,3.021,2.39,5.65,5.048,7.188s5.856,1.827,8.749,0.796c0.103-0.038,10.607-3.635,23.383-2.484
	c7.998,0.72,15.063,3.132,21.153,7.21c-16.31,1.243-28.874,9.156-35.642,19.121c-1.525,2.246-2.117,4.998-1.648,7.674
	c2.56,14.614,6.026,25.086,14.54,33.461c-8.395-1.326-16.176-4.274-22.734-8.779c-9.982-6.857-15.871-16.509-16.582-27.18
	c-0.331-4.992-4.157-9.046-9.119-9.671c-0.44-0.055-0.876-0.083-1.311-0.083c-4.462,0-8.5,2.86-9.92,7.193
	c-3.762,11.473-15.358,27.198-34.19,34.096c7.55-20.944,4.927-42.552,4.769-43.769c-0.511-3.971-3.248-7.298-7.045-8.571
	c-3.794-1.271-7.987-0.261-10.786,2.6c-11.172,11.416-45.616,41.94-70.5,46.03C157.005,147.815,144.527,145.064,135.91,140.677z
	 M298.197,169.396c-20.59,0-37.86,14.436-42.252,33.715c-4.391-19.278-21.661-33.715-42.251-33.715
	c-13.197,0-25.027,5.936-32.983,15.269l-8.33-4.212v-14.148c1.89-0.21,3.797-0.467,5.721-0.784
	c22.23-3.654,46.917-21.243,63.361-34.986c-1.476,8.619-4.598,18-10.952,24.967c-2.788,3.058-3.509,7.473-1.839,11.258
	c1.672,3.786,5.42,6.229,9.557,6.229c26.399,0,48.185-12.988,61.709-29.697c4.301,6.945,10.238,13.112,17.626,18.187
	c6.595,4.53,14.031,7.911,21.973,10.126v8.898l-8.274,4.259C323.307,175.372,311.44,169.396,298.197,169.396z M320.644,212.737
	c0,12.378-10.07,22.448-22.447,22.448s-22.448-10.07-22.448-22.448s10.071-22.447,22.448-22.447S320.644,200.36,320.644,212.737z
	 M236.141,212.737c0,12.378-10.07,22.448-22.447,22.448s-22.448-10.07-22.448-22.448s10.071-22.447,22.448-22.447
	S236.141,200.36,236.141,212.737z M186.625,277.296c-7.984-5.405-13.283-15.291-14.244-26.568v-17.051
	c0-5.77-4.678-10.447-10.447-10.447c-7.143,0-12.954-5.812-12.954-12.954c0-6.42,4.699-11.749,10.836-12.766l11.568,5.851
	c-0.67,3.021-1.033,6.156-1.033,9.375c0,23.899,19.443,43.343,43.343,43.343c20.59,0,37.86-14.436,42.251-33.715
	c4.392,19.279,21.663,33.715,42.252,33.715c23.899,0,43.342-19.443,43.342-43.343c0-3.174-0.352-6.265-1.003-9.247l11.604-5.973
	c6.119,1.031,10.8,6.352,10.8,12.759c0,7.143-5.812,12.954-12.954,12.954c-5.769,0-10.447,4.677-10.447,10.447v17.049
	c-0.949,11.047-6.442,21.173-14.417,26.573c0,0-56.47,32.387-56.653,32.508c-7.833,5.172-17.183,5.172-25.016,0
	C243.266,309.685,186.625,277.296,186.625,277.296z M287.621,322.889v41.815c0,17.378-14.18,31.516-31.61,31.516
	c-17.486,0-31.712-14.138-31.712-31.516v-41.803l7.939,4.538c7.333,4.763,15.528,7.144,23.724,7.144
	c8.198,0,16.395-2.383,23.73-7.148L287.621,322.889z M20.946,405.628h64.425c5.769,0,10.447-4.677,10.447-10.447
	c0-5.77-4.678-10.447-10.447-10.447H20.946v-18.939v-70.814h81.399v115.566H20.946V405.628z M317.798,454.744h31.888v17.726
	c0,2.17,0.263,4.278,0.745,6.303H123.24v-57.78v-12.861c0-11.775,7.32-23.706,17.028-27.751l63.136-26.306v10.628
	c0,28.899,23.599,52.411,52.606,52.411c28.952,0,52.505-23.512,52.505-52.411v-10.628l63.136,26.306
	c2.577,1.074,4.994,2.692,7.162,4.738c-2.405,1.914-3.95,4.86-3.95,8.173v19.603c-11.973,0.884-21.809,9.556-24.464,20.954h-32.601
	c-5.769,0-10.447,4.677-10.447,10.447C307.351,450.067,312.029,454.744,317.798,454.744z M440.814,403.739v19.528
	c0,5.77,4.678,10.447,10.447,10.447h8.419c3.476,0,6.303,2.828,6.303,6.303v32.452c0,3.476-2.827,6.303-6.303,6.303h-60.555h-22.241
	c-3.476,0-6.303-2.828-6.303-6.303v-32.452c0-3.476,2.827-6.303,6.303-6.303h8.425h25.32c5.769,0,10.447-4.677,10.447-10.447
	c0-5.77-4.678-10.447-10.447-10.447h-14.873v-9.081H440.814z M488.337,209.118c9.62,41.002-6.854,84.591-40.03,109.533
	c14.762-39.827,33.124-65.4,33.538-65.971c3.409-4.653,2.401-11.189-2.251-14.6c-4.652-3.411-11.191-2.405-14.603,2.249
	c-1.102,1.503-16.526,22.837-30.9,57.102C435.87,261.385,456.056,227.151,488.337,209.118z"/>
<path d="M173.562,429.679h-0.137c-5.769,0-10.447-4.677-10.447-10.447s4.678-10.447,10.447-10.447h0.137
	c5.769,0,10.447,4.677,10.447,10.447S179.331,429.679,173.562,429.679z"/>
<path d="M191.548,464.147h-0.137c-5.769,0-10.447-4.677-10.447-10.447c0-5.77,4.678-10.447,10.447-10.447h0.137
	c5.769,0,10.447,4.677,10.447,10.447C201.996,459.469,197.317,464.147,191.548,464.147z"/>
</svg>